<svg xmlns="http://www.w3.org/2000/svg" xmlns:xlink="http://www.w3.org/1999/xlink" width="1587" zoomAndPan="magnify" viewBox="0 0 1190.25 1683.749945" height="2245" preserveAspectRatio="xMidYMid meet" version="1.0"><defs><clipPath id="e5501652f3"><path d="M 0 0.40625 L 1189.5 0.40625 L 1189.5 1683.09375 L 0 1683.09375 Z M 0 0.40625 " clip-rule="nonzero"/></clipPath><clipPath id="a8298eeb9e"><path d="M 0 0.40625 L 1189.5 0.40625 L 1189.5 1013 L 0 1013 Z M 0 0.40625 " clip-rule="nonzero"/></clipPath><clipPath id="e6b3f1a04d"><path d="M 1348.714844 1160.789062 L -216.828125 118.867188 L 960.058594 -1649.464844 L 2525.601562 -607.546875 Z M 1348.714844 1160.789062 " clip-rule="nonzero"/></clipPath><clipPath id="2ce1fa48d0"><path d="M 1348.714844 1160.789062 L -216.828125 118.867188 L 960.058594 -1649.464844 L 2525.601562 -607.546875 Z M 1348.714844 1160.789062 " clip-rule="nonzero"/></clipPath><clipPath id="92fdceacbf"><path d="M 0 462 L 1136 462 L 1136 1683.09375 L 0 1683.09375 Z M 0 462 " clip-rule="nonzero"/></clipPath><clipPath id="676f120cfa"><path d="M -1089.261719 2126.09375 L -511.21875 349.175781 L 1495.207031 1001.878906 L 917.164062 2778.796875 Z M -1089.261719 2126.09375 " clip-rule="nonzero"/></clipPath><clipPath id="0840a6a199"><path d="M -1089.261719 2126.09375 L -511.21875 349.175781 L 1495.207031 1001.878906 L 917.164062 2778.796875 Z M -1089.261719 2126.09375 " clip-rule="nonzero"/></clipPath></defs><g clip-path="url(#e5501652f3)"><path fill="#ffffff" d="M 0 0.40625 L 1189.5 0.40625 L 1189.5 1683.09375 L 0 1683.09375 Z M 0 0.40625 " fill-opacity="1" fill-rule="nonzero"/><path fill="#820a00" d="M 0 0.40625 L 1189.5 0.40625 L 1189.5 1683.09375 L 0 1683.09375 Z M 0 0.40625 " fill-opacity="1" fill-rule="nonzero"/></g><g clip-path="url(#a8298eeb9e)"><g clip-path="url(#e6b3f1a04d)"><g clip-path="url(#2ce1fa48d0)"><path fill="#65160e" d="M 1483.824219 -1014.660156 C 1579.503906 -1055.183594 1688.019531 -1063.914062 1789.410156 -1041.183594 C 1890.800781 -1018.453125 1984.710938 -964.644531 2057.074219 -890.074219 C 2129.433594 -815.503906 2180.203125 -720.582031 2204.0625 -619.449219 C 2227.921875 -518.320312 2225.035156 -411.257812 2197.746094 -310.996094 C 2154.617188 -152.539062 2053.996094 -16.714844 1951.289062 111.421875 C 1848.578125 239.5625 1740.082031 366.792969 1676.382812 518.160156 C 1642.765625 598.042969 1622.425781 682.964844 1589.628906 763.1875 C 1556.832031 843.410156 1508.957031 921.3125 1435.429688 967.195312 C 1392.304688 994.105469 1341.953125 1008.71875 1291.199219 1011.578125 C 1240.449219 1014.441406 1189.332031 1005.757812 1141.457031 988.664062 C 1045.714844 954.480469 964.542969 887.851562 896.28125 812.511719 C 828.015625 737.175781 770.984375 652.527344 709.164062 571.816406 C 647.34375 491.105469 579.492188 413.183594 495.046875 356.574219 C 386.523438 283.820312 256.117188 249.871094 145.363281 180.554688 C 89.988281 145.898438 39.285156 101.703125 5.765625 45.628906 C -27.753906 -10.441406 -42.722656 -79.378906 -25.949219 -142.519531 C -16.824219 -176.867188 1.339844 -208.570312 25.125 -234.976562 C 48.914062 -261.382812 78.222656 -282.574219 110.027344 -298.4375 C 173.636719 -330.164062 246.015625 -340.382812 317.09375 -341.03125 C 388.171875 -341.679688 458.988281 -333.230469 529.984375 -329.707031 C 600.980469 -326.183594 673.246094 -327.746094 741.429688 -347.84375 C 832.597656 -374.71875 911.582031 -433.464844 977.6875 -501.761719 C 1043.792969 -570.054688 1098.59375 -648.253906 1156.210938 -723.847656 C 1245.765625 -841.347656 1347.785156 -957.046875 1483.824219 -1014.660156 Z M 1483.824219 -1014.660156 " fill-opacity="1" fill-rule="nonzero"/></g></g></g><g clip-path="url(#92fdceacbf)"><g clip-path="url(#676f120cfa)"><g clip-path="url(#0840a6a199)"><path fill="#a21104" d="M 1027.890625 1673.328125 C 1092.25 1754.011719 1129.632812 1855.480469 1135.015625 1958.550781 C 1140.398438 2061.621094 1114.050781 2165.851562 1062.078125 2255.019531 C 1010.101562 2344.191406 932.882812 2418.152344 842.527344 2468.03125 C 752.167969 2517.910156 648.984375 2543.789062 545.773438 2544.507812 C 382.660156 2545.644531 225.808594 2485.734375 75.757812 2421.765625 C -74.296875 2357.796875 -225.03125 2288.046875 -386.867188 2267.609375 C -472.277344 2256.824219 -558.953125 2260.085938 -644.46875 2250.175781 C -729.984375 2240.261719 -817.3125 2215.308594 -880.871094 2157.246094 C -918.152344 2123.195312 -945.601562 2078.9375 -961.914062 2031.15625 C -978.230469 1983.375 -983.601562 1932.152344 -980.058594 1881.785156 C -972.972656 1781.050781 -930.949219 1685.578125 -877.144531 1600.125 C -823.34375 1514.667969 -757.625 1437.464844 -696.960938 1356.734375 C -636.292969 1276.007812 -579.90625 1190.253906 -548.34375 1094.328125 C -507.785156 971.050781 -510.199219 837.222656 -473.519531 712.738281 C -455.183594 650.492188 -426.46875 590.167969 -381.800781 543.101562 C -337.128906 496.035156 -275.1875 463.273438 -210.304688 462.425781 C -175.007812 461.964844 -139.820312 470.859375 -108.195312 486.546875 C -76.570312 502.238281 -48.460938 524.609375 -24.773438 550.785156 C 22.59375 603.144531 51.730469 669.648438 71.367188 737.46875 C 91 805.289062 101.863281 875.292969 117.488281 944.148438 C 133.113281 1013 153.941406 1081.714844 191.40625 1141.558594 C 241.503906 1221.582031 318.832031 1281.417969 401.847656 1326.382812 C 484.863281 1371.347656 574.332031 1402.847656 662.058594 1437.738281 C 798.414062 1491.972656 936.382812 1558.605469 1027.890625 1673.328125 Z M 1027.890625 1673.328125 " fill-opacity="1" fill-rule="nonzero"/></g></g></g></svg>